# xmcd
#
# Track frame offsets:
#	150
#	15760
#	32070
#	44492
#	59402
#	74287
#	85286
#	96188
#	109461
#	120231
#	135193
#	150100
#	167048
#	181448
#	195660
#	209390
#	222928
#	235756
#	249211
#	261643
#	277860
#	297236
#
# Disc length: 4167 seconds
#
# Revision: 0
# Processed by: cddbd v1.5.2PL0 Copyright (c) Steve Scherf et al.
# Submitted via: EasyCDDAExtractor 10.0.1.1
#
DISCID=2f104516
DTITLE=Gary Holton and Casino Steel - Rig Rock Disc 2
DYEAR=1900
DGENRE=
TTITLE0=Blackberry Way
TTITLE1=Lover's Lane
TTITLE2=She's Got Balls
TTITLE3=Honky Tonk Angels
TTITLE4=Gary's Back In Town
TTITLE5=Surrender
TTITLE6=St. Peter!
TTITLE7=Silver Rose
TTITLE8=Who's Sorry Now
TTITLE9=Stay With Me
TTITLE10=People In Love
TTITLE11=Pick Me Up
TTITLE12=Baby, I Love You
TTITLE13=Blue Eyed Blonde
TTITLE14=Along Came Jones
TTITLE15=I Wish I Was An Angel
TTITLE16=Billy The Kid
TTITLE17=Pink Shoes
TTITLE18=Auf Wiedersehen, Pet
TTITLE19=Cass Won't Play Rock N' Roll Anymore
TTITLE20=Summer's Over
TTITLE21=We Gotta Go
EXTD=
EXTT0=
EXTT1=
EXTT2=
EXTT3=
EXTT4=
EXTT5=
EXTT6=
EXTT7=
EXTT8=
EXTT9=
EXTT10=
EXTT11=
EXTT12=
EXTT13=
EXTT14=
EXTT15=
EXTT16=
EXTT17=
EXTT18=
EXTT19=
EXTT20=
EXTT21=
PLAYORDER=
